Taylor Swift - Mean official music video 1080i
C:\Users\***\Videos\Taylor Swift - Mean - HDTV 1080i.ts
   General #1
      ID : 1 (0x1)
      Complete name : C:\Users\***\Videos\Taylor Swift - Mean - HDTV 1080i.ts
      Format : MPEG-TS
      File size : 484 MiB
      Duration : 4mn 5s
      Overall bit rate : 16.5 Mbps
   Video #224
      ID : 224 (0xE0)
      Menu ID : 1 (0x1)
      Format : MPEG Video
      Format version : Version 2
      Format profile : Main@High
      Format settings, BVOP : Yes
      Format settings, Matrix : Default
      Codec ID : 2
      Duration : 4mn 4s
      Bit rate mode : Variable
      Bit rate : 15.3 Mbps
      Nominal bit rate : 18.1 Mbps
      Width : 1 920 pixels
      Height : 1 080 pixels
      Display aspect ratio : 16:9
      Frame rate : 29.970 fps
      Standard : Component
      Color space : YUV
      Chroma subsampling : 4:2:0
      Bit depth : 8 bits
      Compression mode : Lossy
      Bits/(Pixel*Frame) : 0.247
      Stream size : 448 MiB (93%)
   Audio #128
      ID : 128 (0x80)
      Menu ID : 1 (0x1)
      Format : AC-3
      Format/Info : Audio Coding 3
      Mode extension : CM (complete main)
      Codec ID : 129
      Duration : 4mn 4s
      Bit rate mode : Constant
      Bit rate : 384 Kbps
      Channel(s) : 2 channels
      Channel positions : Front: L R
      Sampling rate : 48.0 KHz
      Bit depth : 16 bits
      Compression mode : Lossy
      Delay relative to video : 22ms
      Stream size : 11.2 MiB (2%)
      Language : English
   Text #224-608-1
      ID : 224 (0xE0)608-1
      Menu ID : 1 (0x1)
      Format : EIA-608
      Muxing mode : A/53 / DTVCC Transport
      Muxing mode, more info : Muxed in Video #1
      Duration : 4mn 4s
      Stream size : 0.00 Byte (0%)
   Text #224-608-2
      ID : 224 (0xE0)608-2
      Menu ID : 1 (0x1)
      Format : EIA-608
      Muxing mode : A/53 / DTVCC Transport
      Muxing mode, more info : Muxed in Video #1
      Duration : 4mn 4s
      Stream size : 0.00 Byte (0%)
   Text #224-1
      ID : 224 (0xE0)1
      Menu ID : 1 (0x1)
      Format : EIA-708
      Muxing mode : A/53 / DTVCC Transport
      Muxing mode, more info : Muxed in Video #1
      Duration : 4mn 4s
      Stream size : 0.00 Byte (0%)